<svg id="Layer_5" enable-background="new 0 0 64 64" height="512" viewBox="0 0 64 64" width="512" xmlns="http://www.w3.org/2000/svg"><path d="m58 25h-19v-4h-14.513c-1.033-2.931-3.503-5.089-6.483-5.768 1.824-1.468 2.996-3.714 2.996-6.232 0-4.411-3.589-8-8-8s-8 3.589-8 8c0 2.518 1.172 4.765 2.997 6.233-4 .914-6.997 4.494-6.997 8.767v4c0 2.785 1.639 5.189 4 6.315v24.185c0 2.481 2.019 4.5 4.5 4.5 1.421 0 2.675-.675 3.5-1.706.825 1.031 2.079 1.706 3.5 1.706 2.481 0 4.5-2.019 4.5-4.5v-19.5h2v9c0 2.757 2.243 5 5 5h7v4h-1c-2.757 0-5 2.243-5 5v1h28v-1c0-2.757-2.243-5-5-5h-1v-4h7c2.757 0 5-2.243 5-5v-18c0-2.757-2.243-5-5-5zm-41 10h4.5c1.565 0 2.878-1.04 3.324-2.459.68.294 1.415.459 2.176.459 1.08 0 2.125-.326 3.013-.91l5.4 4.91h-18.413zm14.489-4.271 5.511-6.123v11.133zm-1.894-.885c-1.228 1.364-3.491 1.476-4.873.289-.317-.743-.891-1.342-1.601-1.717l-4.876-5.416h17.51zm-12.595-5.238 3.055 3.394h-3.055zm-10-15.606c0-3.309 2.691-6 6-6s6 2.691 6 6-2.691 6-6 6-6-2.691-6-6zm3 8h3 3c2.742 0 5.175 1.596 6.316 4h-7.316v7h-6c-.551 0-1-.449-1-1v-5h-2v4h-3v-2c0-3.86 3.14-7 7-7zm-7 11h3.184c.414 1.161 1.514 2 2.816 2h12.5c.827 0 1.5.673 1.5 1.5s-.673 1.5-1.5 1.5h-13.5c-2.757 0-5-2.243-5-5zm16 30.5c0 1.379-1.122 2.5-2.5 2.5s-2.5-1.121-2.5-2.5v-19.5h-2v19.5c0 1.379-1.122 2.5-2.5 2.5s-2.5-1.121-2.5-2.5v-23.58c.328.047.66.08 1 .08h7v4h4zm20-19.5v-12h19c1.654 0 3 1.346 3 3v15h-36v-6zm15.829 22h-23.658c.413-1.164 1.525-2 2.829-2h18c1.304 0 2.416.836 2.829 2zm-5.829-4h-12v-4h12zm9-6h-30c-1.654 0-3-1.346-3-3v-1h36v1c0 1.654-1.346 3-3 3z"/><path d="m59 29h-18v14h18zm-2 12h-14v-10h14z"/><path d="m27 41h2v2h-2z"/><path d="m31 41h2v2h-2z"/><path d="m35 41h2v2h-2z"/><path d="m45 33h10v2h-10z"/><path d="m45 37h10v2h-10z"/></svg>